#!OML:ASF H:\ManfredETheater\Project 1\Capture day 1\Session 1\subject.ASF
:FULLY-SPECIFIED
:DEGREES
881
root 1.81612 18.0079 -4.50652 -9.94544 0.711602 -1.79097
lowerback 14.9273 3.14733 5.06466
upperback 0.494086 5.17705 1.69713
thorax -7.5514 2.36246 -2.12297
lowerneck -13.7844 -4.57363 -5.12899
upperneck 23.2883 -5.46549 1.24624
head 9.84544 -2.83526 0.607338
rclavicle 3.40667e-014 3.06128e-014
rhumerus -36.6567 -3.23466 -50.9123
rradius 49.9352
rwrist 3.84867
rhand -11.3555 -9.66799
rfingers 7.12502
rthumb 14.678 -39.1284
lclavicle 3.40667e-014 3.06128e-014
lhumerus -43.0607 19.5037 40.3685
lradius 66.9359
lwrist -3.3462
lhand -20.5816 3.96954
lfingers 7.12502
lthumb 5.7783 33.8708
rfemur 5.56655 -4.84924 26.7097
rtibia 22.3377
rfoot -12.586 0.73219
rtoes 21.4562
lfemur -100.046 5.87207 -14.9905
ltibia 109.723
lfoot 5.44979 -23.1671
ltoes -6.60112
882
root 1.8316 17.9984 -4.51152 -9.78339 0.339651 -1.92344
lowerback 14.94 3.28195 5.46867
upperback 0.350638 5.43887 1.77473
thorax -7.66782 2.46936 -2.32278
lowerneck -13.6889 -4.60311 -5.16248
upperneck 23.4044 -5.48135 1.15133
head 9.8679 -2.85703 0.579003
rclavicle -2.85504e-014 -1.07344e-014
rhumerus -36.4138 -3.08851 -51.0499
rradius 50.163
rwrist 3.80629
rhand -11.5331 -9.51491
rfingers 7.12502
rthumb 14.5069 -38.9877
lclavicle -2.85504e-014 -1.07344e-014
lhumerus -43.8156 19.7889 39.8154
lradius 66.7448
lwrist -3.28001
lhand -20.4064 3.90011
lfingers 7.12502
lthumb 5.94748 33.7966
rfemur 5.29223 -4.75346 26.8566
rtibia 22.5028
rfoot -12.6812 0.898355
rtoes 21.6315
lfemur -99.6562 5.20771 -15.0981
ltibia 110.272
lfoot 5.907 -23.7555
ltoes -6.55683
883
root 1.84532 17.9885 -4.51727 -9.60484 0.0040792 -2.04281
lowerback 14.9472 3.40403 5.83802
upperback 0.200962 5.67826 1.84176
thorax -7.78929 2.56522 -2.50968
lowerneck -13.613 -4.62913 -5.18688
upperneck 23.532 -5.49365 1.05663
head 9.89781 -2.87626 0.549109
rclavicle -1.54804e-014 3.97569e-015
rhumerus -36.2066 -2.9612 -51.1664
rradius 50.3962
rwrist 3.75494
rhand -11.7287 -9.36555
rfingers 7.12502
rthumb 14.3184 -38.8518
lclavicle -1.54804e-014 3.97569e-015
lhumerus -44.5354 20.0735 39.2724
lradius 66.5622
lwrist -3.20909
lhand -20.245 3.85526
lfingers 7.12502
lthumb 6.10329 33.7473
rfemur 4.97501 -4.70111 26.9812
rtibia 22.719
rfoot -12.8056 1.08913
rtoes 21.8044
lfemur -99.1503 4.56215 -15.1774
ltibia 110.803
lfoot 6.40358 -24.3405
ltoes -6.39221
884
root 1.85716 17.9783 -4.52363 -9.40676 -0.287256 -2.14645
lowerback 14.9384 3.51136 6.17128
upperback 0.0467792 5.89078 1.89592
thorax -7.909 2.64836 -2.68364
lowerneck -13.5579 -4.65162 -5.19995
upperneck 23.668 -5.50246 0.961403
head 9.93413 -2.89287 0.517003
rclavicle -4.8901e-014 7.15625e-015
rhumerus -36.0372 -2.85784 -51.263
rradius 50.6343
rwrist 3.69978
rhand -11.9431 -9.22331
rfingers 7.12502
rthumb 14.1119 -38.7241
lclavicle -4.8901e-014 7.15625e-015
lhumerus -45.2151 20.359 38.7426
lradius 66.3903
lwrist -3.14232
lhand -20.1052 3.84034
lfingers 7.12502
lthumb 6.23826 33.7285
rfemur 4.61255 -4.69919 27.0781
rtibia 22.9824
rfoot -12.9531 1.31079
rtoes 21.9733
lfemur -98.5359 3.93161 -15.2321
ltibia 111.312
lfoot 6.92775 -24.9015
ltoes -6.09169
885
root 1.86711 17.9683 -4.53044 -9.18545 -0.530169 -2.23451
lowerback 14.9027 3.6027 6.46928
upperback -0.110461 6.07359 1.93672
thorax -8.01991 2.71787 -2.84418
lowerneck -13.5219 -4.67007 -5.20035
upperneck 23.8072 -5.5072 0.865012
head 9.97466 -2.90656 0.482378
rclavicle -1.36167e-014 1.70955e-014
rhumerus -35.9071 -2.78175 -51.3404
rradius 50.8765
rwrist 3.64511
rhand -12.178 -9.09043
rfingers 7.12502
rthumb 13.8855 -38.6069
lclavicle -1.36167e-014 1.70955e-014
lhumerus -45.8514 20.6469 38.2313
lradius 66.2317
lwrist -3.08526
lhand -19.9963 3.86088
lfingers 7.12502
lthumb 6.34343 33.7459
rfemur 4.20181 -4.75145 27.1466
rtibia 23.2892
rfoot -13.1168 1.56723
rtoes 22.1353
lfemur -97.8227 3.3168 -15.2632
ltibia 111.797
lfoot 7.46234 -25.4183
ltoes -5.65264
886
root 1.87515 17.9585 -4.53742 -8.93807 -0.724199 -2.30815
lowerback 14.8293 3.67804 6.73308
upperback -0.268756 6.22549 1.96516
thorax -8.11435 2.77376 -2.98958
lowerneck -13.5027 -4.68348 -5.18813
upperneck 23.9434 -5.5065 0.767469
head 10.0167 -2.91668 0.445531
rclavicle 1.57537e-014 -2.82274e-014
rhumerus -35.8169 -2.73442 -51.398
rradius 51.1208
rwrist 3.59364
rhand -12.4359 -8.96869
rfingers 7.12502
rthumb 13.6369 -38.502
lclavicle 1.57537e-014 -2.82274e-014
lhumerus -46.4427 20.9387 37.746
lradius 66.0905
lwrist -3.03766
lhand -19.9257 3.91971
lfingers 7.12502
lthumb 6.41156 33.8027
rfemur 3.74162 -4.85812 27.1882
rtibia 23.6349
rfoot -13.2905 1.85957
rtoes 22.2869
lfemur -97.0209 2.72251 -15.2703
ltibia 112.255
lfoot 7.98347 -25.8713
ltoes -5.0977
887
root 1.8813 17.9492 -4.54421 -8.66476 -0.872053 -2.36897
lowerback 14.7111 3.73828 6.96308
upperback -0.425369 6.34668 1.98352
thorax -8.18589 2.81676 -3.11687
lowerneck -13.4977 -4.69087 -5.16487
upperneck 24.0705 -5.49887 0.669668
head 10.0577 -2.92258 0.407347
rclavicle -6.47044e-014 4.77083e-015
rhumerus -35.7654 -2.71567 -51.4349
rradius 51.364
rwrist 3.54658
rhand -12.7194 -8.85875
rfingers 7.12502
rthumb 13.3637 -38.4102
lclavicle -6.47044e-014 4.77083e-015
lhumerus -46.9879 21.2357 37.295
lradius 65.9706
lwrist -2.99314
lhand -19.9002 4.01927
lfingers 7.12502
lthumb 6.43618 33.9015
rfemur 3.23562 -5.01557 27.2065
rtibia 24.0135
rfoot -13.4696 2.18504
rtoes 22.4236
lfemur -96.1371 2.15748 -15.2529
ltibia 112.686
lfoot 8.46097 -26.2423
ltoes -4.47112
888
root 1.88551 17.9403 -4.55047 -8.36897 -0.979344 -2.41936
lowerback 14.5461 3.78495 7.15939
upperback -0.577191 6.43869 1.99517
thorax -8.23055 2.84816 -3.22248
lowerneck -13.5049 -4.69117 -5.13347
upperneck 24.1832 -5.48277 0.573821
head 10.0953 -2.92356 0.369392
rclavicle -1.31198e-014 -3.33958e-014
rhumerus -35.7509 -2.72382 -51.4497
rradius 51.602
rwrist 3.50392
rhand -13.03 -8.76035
rfingers 7.12502
rthumb 13.0642 -38.3312
lclavicle -1.31198e-014 -3.33958e-014
lhumerus -47.4865 21.5388 36.8869
lradius 65.8753
lwrist -2.94132
lhand -19.9222 4.15746
lfingers 7.12502
lthumb 6.41497 34.0403
rfemur 2.69231 -5.21629 27.2074
rtibia 24.4179
rfoot -13.6507 2.53707
rtoes 22.5404
lfemur -95.1747 1.63452 -15.2098
ltibia 113.092
lfoot 8.86477 -26.5168
ltoes -3.83341
